# xmcd
#
# Track frame offsets:
#	150
#	9967
#	22857
#	35982
#	50752
#	60760
#	73637
#	82585
#	95200
#	110529
#
# Disc length: 1672 seconds
#
# Revision: 5
# Processed by: cddbd v1.5.2PL0 Copyright (c) Steve Scherf et al.
# Submitted via: EasyCDDAExtractor 15.2.0.1
#
DISCID=7506860a
DTITLE=Various Artist - Country Pride: A Special Brand Of Country
DYEAR=1999
DGENRE=Country
TTITLE0=Lynn Anderson - What a Man My Man Is
TTITLE1=Jeannie C. Riley - Good Enough to Be Your Wife
TTITLE2=Johnny Paycheck - She's All I Got
TTITLE3=Don Gibson - Woman
TTITLE4=Conway Twitty - It's Only Make Believe
TTITLE5=Bobby G. Rice - You Lay So Easy on My Mind
TTITLE6=Margo Smith - There I Said It
TTITLE7=Freddy Fender - Wasted Days and Wasted Nights
TTITLE8=Cal Smith - It's Time to Pay the Fiddler
TTITLE9=Kenny Rogers - Conditions
EXTD=YEAR: 1999
EXTT0=
EXTT1=
EXTT2=
EXTT3=
EXTT4=
EXTT5=
EXTT6=
EXTT7=
EXTT8=
EXTT9=
PLAYORDER=
